# xmcd
#
# Track frame offsets: 
#        188
#        17088
#        32550
#        58738
#        71025
#        89588
#        103763
#        116388
#        135000
#        147250
#        162400
#        190400
#
# Disc length: 2701 seconds
#
# Revision: 2
# Processed by: cddbd v1.5.2PL0 Copyright (c) Steve Scherf et al.
# Submitted via: ExactAudioCopy v0.95b4
#
DISCID=a40a8b0c
DTITLE=Karl Dall - Knall auf Dall
DYEAR=1990
DGENRE=Comedy
TTITLE0=Ja wenn du reinkommst ins All
TTITLE1=Heute schütte ich mich zu
TTITLE2=Verstehen Sie Spaß Das Spaßtelefon
TTITLE3=Alles Paletti
TTITLE4=Dall-As Talk mit Heinz Schenk
TTITLE5=Millionen Frauen lieben mich
TTITLE6=Ich bin der Mann von dem man träumt
TTITLE7=Dall-As Talk mit Benno Hoffman
TTITLE8=Leila - Lied und Tango
TTITLE9=Das Geld das wird abgeschafft
TTITLE10=Dall-As Talk mit Gotthilf Fischer
TTITLE11=Diese Scheibe ist ein Hit
EXTD=
EXTT0=
EXTT1=
EXTT2=
EXTT3=
EXTT4=
EXTT5=
EXTT6=
EXTT7=
EXTT8=
EXTT9=
EXTT10=
EXTT11=
PLAYORDER=
